<?xml version="1.0" standalone="no"?>
<!DOCTYPE svg PUBLIC "-//W3C//DTD SVG 20010904//EN"
 "http://www.w3.org/TR/2001/REC-SVG-20010904/DTD/svg10.dtd">
<svg version="1.0" xmlns="http://www.w3.org/2000/svg"
 width="1036.000000pt" height="372.000000pt" viewBox="0 0 1036.000000 372.000000"
 preserveAspectRatio="xMidYMid meet">

<g transform="translate(0.000000,372.000000) scale(0.100000,-0.100000)"
fill="#000000" stroke="none">
<path d="M2080 3380 c-252 -5 -292 -8 -347 -27 -161 -54 -274 -153 -379 -333
-156 -268 -193 -334 -191 -336 1 -2 367 -6 812 -9 613 -5 812 -9 818 -18 13
-21 149 -253 276 -474 l122 -211 -79 -139 c-43 -76 -121 -210 -172 -298 -51
-88 -108 -188 -127 -222 l-35 -63 415 0 415 0 38 68 c20 37 68 119 105 182
134 227 174 408 133 608 -23 111 -60 196 -165 379 -52 89 -121 210 -154 268
-163 288 -191 331 -260 401 -89 89 -159 136 -259 175 -162 62 -211 65 -966 49z"/>
<path d="M5481 2350 c-83 -20 -121 -82 -130 -208 l-6 -86 -40 -8 c-80 -16 -85
-18 -85 -38 0 -18 7 -20 65 -20 l65 0 0 -320 0 -320 30 0 30 0 0 320 0 320 80
0 80 0 0 30 0 30 -80 0 -80 0 0 56 c0 76 17 138 47 166 22 20 34 23 109 23 73
-1 85 2 90 18 7 24 4 27 -43 38 -45 10 -85 10 -132 -1z"/>
<path d="M5867 2346 c-84 -31 -115 -84 -124 -211 l-6 -83 -46 -7 c-69 -9 -81
-15 -81 -36 0 -17 7 -19 65 -19 l65 0 0 -320 0 -320 30 0 30 0 0 320 0 320 85
0 85 0 0 30 0 30 -86 0 -86 0 7 78 c14 147 46 179 171 169 70 -6 72 -6 76 18
6 29 -2 33 -85 40 -41 4 -75 1 -100 -9z"/>
<path d="M9327 2346 c-79 -29 -111 -85 -122 -213 l-7 -82 -53 -6 c-62 -8 -80
-18 -72 -39 5 -12 21 -16 67 -16 l60 0 0 -320 0 -320 35 0 35 0 0 320 0 320
80 0 80 0 0 30 0 30 -80 0 -80 0 0 70 c0 77 15 124 50 155 18 17 36 20 106 20
74 -1 83 1 88 19 7 25 6 26 -41 37 -53 12 -102 10 -146 -5z"/>
<path d="M4635 2300 c-167 -18 -297 -140 -341 -320 -19 -77 -18 -248 2 -323
34 -132 106 -227 212 -279 64 -32 71 -33 187 -33 116 0 123 1 187 33 168 82
252 275 228 519 -29 282 -205 431 -475 403z m213 -90 c66 -29 133 -102 164
-178 20 -50 22 -75 23 -207 0 -134 -2 -157 -24 -213 -61 -162 -218 -241 -401
-202 -111 24 -184 89 -232 209 -19 48 -22 75 -23 196 0 109 4 151 18 191 39
112 103 181 200 216 72 26 202 20 275 -12z"/>
<path d="M8870 2275 c-14 -37 -13 -50 8 -76 34 -42 79 7 63 68 -11 40 -57 46
-71 8z"/>
<path d="M8210 1820 l0 -470 260 0 260 0 0 30 0 30 -225 0 -225 0 0 440 0 440
-35 0 -35 0 0 -470z"/>
<path d="M7477 2213 c-3 -5 -10 -41 -17 -81 l-13 -72 -41 -11 c-64 -16 -66
-17 -66 -39 0 -17 6 -20 49 -20 l49 0 4 -262 c3 -257 4 -264 28 -308 32 -58
75 -80 155 -80 84 0 105 7 105 36 0 24 -2 24 -68 22 -143 -6 -152 16 -152 347
l0 245 100 0 100 0 0 30 0 30 -100 0 -100 0 0 85 c0 67 -3 85 -14 85 -8 0 -17
-3 -19 -7z"/>
<path d="M6193 2046 c-57 -19 -98 -50 -117 -90 -21 -44 -20 -81 4 -133 23 -52
76 -88 203 -137 115 -45 152 -67 178 -108 37 -61 12 -124 -66 -159 -51 -24
-179 -25 -255 -3 -106 29 -100 30 -100 -4 0 -26 6 -32 43 -47 55 -23 228 -32
294 -16 100 25 163 95 163 181 0 88 -52 139 -206 200 -176 70 -204 93 -204
168 0 43 24 73 73 91 42 16 173 13 240 -6 50 -14 60 -14 68 -2 29 44 -31 70
-176 75 -67 3 -114 -1 -142 -10z"/>
<path d="M6885 2047 c-127 -49 -193 -156 -202 -327 -11 -188 63 -317 209 -366
64 -21 222 -15 286 11 35 14 42 22 42 45 l0 28 -61 -19 c-69 -21 -191 -25
-254 -8 -82 23 -155 136 -155 240 l0 39 251 0 252 0 -6 78 c-10 141 -58 225
-151 268 -57 27 -157 32 -211 11z m185 -62 c57 -29 96 -95 106 -179 l7 -56
-217 0 -217 0 6 38 c10 58 57 143 96 174 57 46 154 55 219 23z"/>
<path d="M9724 2044 c-100 -36 -176 -145 -192 -274 -11 -92 0 -192 29 -260 29
-67 104 -135 172 -155 73 -22 191 -19 271 5 63 20 66 22 66 51 0 26 -3 30 -17
24 -97 -40 -249 -48 -318 -16 -81 37 -125 107 -141 224 l-7 47 252 0 251 0 0
69 c0 100 -24 166 -85 228 -33 34 -64 55 -90 62 -54 15 -141 12 -191 -5z m145
-45 c24 -5 57 -19 74 -31 35 -25 72 -104 81 -170 l6 -48 -217 0 -216 0 7 46
c8 59 51 139 90 167 16 11 50 27 75 33 57 16 48 15 100 3z"/>
<path d="M8870 1700 l0 -350 35 0 35 0 0 350 0 350 -35 0 -35 0 0 -350z"/>
<path d="M7881 1441 c-27 -50 -1 -105 48 -99 37 4 57 48 39 86 -17 35 -71 44
-87 13z"/>
</g>
</svg>
